<?xml version="1.0" standalone="no"?>
<!DOCTYPE svg PUBLIC "-//W3C//DTD SVG 20010904//EN"
 "http://www.w3.org/TR/2001/REC-SVG-20010904/DTD/svg10.dtd">
<svg version="1.0" xmlns="http://www.w3.org/2000/svg"
 width="700.000000pt" height="700.000000pt" viewBox="0 0 700.000000 700.000000"
 preserveAspectRatio="xMidYMid meet">
<metadata>
Created by potrace 1.14, written by Peter Selinger 2001-2017
</metadata>
<g transform="translate(0.000000,700.000000) scale(0.100000,-0.100000)"
fill="#000000" stroke="none">
<path d="M2838 6984 c-304 -49 -694 -234 -1003 -474 -33 -25 -93 -64 -133 -85
-150 -81 -268 -221 -331 -390 -45 -124 -51 -315 -12 -435 11 -36 21 -65 21
-66 0 -1 -30 -9 -67 -19 -498 -133 -808 -664 -679 -1162 13 -49 13 -53 -6 -70
-40 -36 -110 -135 -153 -216 -79 -152 -112 -291 -109 -462 3 -172 48 -335 129
-468 l35 -59 -43 -76 c-117 -210 -151 -454 -97 -697 48 -214 209 -442 403
-572 37 -24 65 -49 61 -54 -3 -5 -6 -56 -6 -112 -2 -451 291 -869 713 -1017
28 -10 47 -29 77 -74 137 -209 379 -378 633 -443 91 -23 124 -27 259 -27 128
0 172 4 250 24 95 23 204 64 263 100 17 11 41 24 52 29 50 22 186 138 259 221
30 35 132 182 139 203 5 15 6 14 53 -63 155 -260 429 -447 737 -503 123 -23
328 -15 451 17 112 30 253 93 347 157 83 56 223 197 277 278 40 60 48 66 120
96 320 131 560 406 641 736 29 120 32 150 32 280 l0 116 63 41 c186 124 334
334 393 559 32 126 36 315 9 438 -21 94 -66 206 -114 288 l-35 57 26 38 c54
78 113 237 133 357 18 110 9 273 -22 395 -33 128 -142 327 -223 404 -29 27
-29 28 -15 79 127 497 -169 1012 -669 1158 -61 18 -76 26 -72 39 67 170 51
420 -37 580 -62 114 -168 225 -266 280 -35 19 -109 68 -165 108 -243 176 -441
288 -651 369 -202 78 -330 106 -506 107 -122 1 -142 -2 -207 -25 -90 -33 -200
-106 -253 -167 l-40 -47 -33 39 c-73 88 -206 166 -321 191 -76 16 -207 16
-308 -1z m335 -247 c94 -47 165 -129 200 -232 6 -19 11 -310 12 -797 l2 -767
-41 25 c-96 59 -211 96 -308 97 -71 1 -106 -21 -127 -79 -12 -36 -12 -44 4
-77 22 -46 54 -64 128 -71 161 -16 290 -125 333 -281 4 -16 8 -655 9 -1418 l1
-1389 -65 69 c-127 134 -284 235 -445 288 -105 34 -147 26 -189 -35 -37 -54
-12 -126 56 -159 24 -12 49 -21 56 -21 25 0 165 -71 228 -116 185 -132 312
-337 349 -564 14 -83 6 -250 -16 -335 -94 -367 -408 -625 -781 -642 -207 -10
-366 35 -539 150 -64 43 -168 152 -217 227 -68 106 -80 117 -136 136 -302 98
-512 319 -587 618 -24 96 -29 214 -16 351 7 74 6 82 -14 108 -12 15 -45 39
-73 54 -199 100 -346 291 -391 509 -16 75 -18 229 -4 284 27 107 46 158 84
222 3 4 35 -16 72 -44 82 -63 220 -128 327 -157 104 -27 251 -37 285 -19 39
21 71 75 64 112 -12 72 -58 103 -159 107 -178 8 -388 112 -503 248 -115 137
-173 282 -178 451 -3 108 4 168 32 255 35 111 118 241 205 319 56 51 72 96 52
150 -8 23 -16 49 -18 59 -2 10 -7 27 -10 37 -14 44 -17 71 -20 163 -10 330
196 613 520 717 101 32 281 36 385 9 231 -62 413 -217 499 -427 40 -97 47
-129 57 -241 3 -42 13 -88 22 -103 42 -71 164 -65 194 10 25 64 4 244 -45 378
-123 337 -441 587 -797 628 -25 3 -46 5 -47 5 -2 1 -10 18 -19 39 -86 198 -46
418 103 560 234 223 597 173 767 -106 41 -68 72 -92 116 -92 89 0 138 83 100
168 -71 158 -248 310 -420 362 l-55 16 72 42 c163 95 378 181 540 216 40 8
114 13 178 13 99 -2 116 -5 168 -30z m1068 0 c150 -39 326 -113 473 -199 l71
-42 -41 -12 c-199 -58 -424 -264 -447 -410 -11 -70 52 -131 125 -121 37 5 88
39 88 59 0 5 14 30 31 55 97 140 235 217 393 218 95 0 135 -6 196 -31 137 -54
240 -164 289 -307 26 -75 23 -250 -5 -317 -32 -76 -38 -82 -85 -87 -142 -15
-336 -90 -456 -177 -243 -177 -399 -479 -396 -764 1 -100 77 -152 161 -111 48
24 60 50 66 142 34 450 444 762 882 672 260 -54 475 -252 551 -509 23 -79 24
-85 28 -191 3 -97 -10 -172 -52 -301 -16 -48 5 -90 89 -177 90 -92 159 -217
188 -342 38 -159 15 -347 -60 -496 -115 -226 -359 -387 -605 -398 -100 -4
-147 -35 -159 -105 -6 -32 11 -71 44 -101 28 -25 113 -29 225 -9 157 27 291
84 408 172 66 51 67 51 79 29 114 -204 115 -472 1 -686 -72 -137 -205 -265
-327 -316 -18 -8 -46 -29 -61 -47 -26 -31 -27 -35 -20 -108 19 -199 8 -307
-45 -452 -88 -241 -278 -424 -533 -514 -83 -29 -97 -41 -157 -139 -41 -68
-156 -189 -220 -232 -90 -60 -202 -112 -276 -127 -10 -3 -39 -9 -64 -15 -67
-16 -293 -7 -370 14 -232 63 -437 230 -545 444 -37 74 -53 122 -74 217 -16 75
-17 216 -16 2095 1 1876 3 2017 19 2059 35 94 102 170 180 208 60 29 74 33
149 42 75 9 101 25 123 77 24 56 -4 121 -62 144 -76 28 -274 -24 -385 -102
l-26 -18 2 522 c1 287 5 536 10 552 32 119 131 223 248 261 65 21 249 12 368
-19z"/>
<path d="M1508 4685 c-47 -26 -61 -66 -54 -156 10 -134 42 -253 102 -372 51
-102 88 -153 178 -243 133 -133 290 -221 465 -261 l82 -18 -6 -35 c-13 -67
-75 -164 -150 -232 -67 -61 -217 -118 -311 -118 -65 0 -110 -39 -118 -103 -6
-44 24 -94 66 -111 60 -26 226 0 338 52 215 99 361 284 414 525 5 21 12 27 34
28 32 1 39 2 120 23 188 48 441 220 458 311 21 114 -109 176 -198 93 -207
-194 -485 -260 -739 -177 -279 92 -486 349 -505 627 -7 92 -18 134 -44 157
-26 24 -98 29 -132 10z"/>
<path d="M2555 2762 c-186 -30 -299 -71 -426 -154 -255 -166 -415 -443 -434
-748 -2 -30 -4 -58 -4 -62 -1 -3 -35 -4 -77 -2 -88 5 -124 -10 -149 -62 -18
-38 -18 -48 -4 -88 15 -42 50 -66 104 -72 25 -2 64 -6 88 -8 239 -24 482 -201
578 -423 40 -91 56 -157 65 -268 10 -112 47 -152 139 -146 26 1 72 41 83 72
29 78 -30 351 -105 487 -98 179 -275 348 -435 416 -53 22 -59 35 -57 126 7
367 306 678 679 706 110 8 151 33 164 97 8 38 -16 91 -50 114 -26 17 -104 24
-159 15z"/>
<path d="M5618 4804 c-36 -19 -48 -44 -54 -107 -11 -136 -33 -227 -75 -309
-103 -203 -284 -343 -514 -398 -47 -11 -217 -15 -260 -6 -135 29 -252 82 -338
153 -32 26 -72 58 -89 71 -81 59 -191 -14 -172 -114 6 -30 64 -95 142 -156 91
-72 295 -159 410 -174 59 -8 60 -8 68 -60 9 -61 53 -159 104 -238 117 -179
338 -308 550 -319 77 -5 112 10 140 56 24 39 25 68 5 107 -20 39 -56 56 -135
64 -180 19 -326 117 -404 273 -14 28 -29 64 -32 80 -5 28 -5 28 73 46 420 95
740 472 746 880 l2 108 -33 30 c-37 33 -88 38 -134 13z"/>
<path d="M3926 2991 c-93 -62 -63 -193 47 -206 18 -2 61 -6 97 -10 279 -30
515 -225 612 -505 22 -65 32 -131 32 -225 l1 -70 -75 -39 c-316 -164 -508
-462 -525 -817 -5 -102 32 -149 118 -149 63 0 107 57 107 140 0 57 28 186 53
245 61 145 176 279 302 353 82 48 204 91 278 98 113 10 143 16 164 30 68 44
60 154 -13 189 -28 13 -53 16 -105 13 -76 -6 -77 -5 -78 66 0 22 -3 58 -6 80
-6 38 -10 59 -33 146 -14 56 -85 200 -130 265 -91 131 -241 258 -382 322 -97
44 -117 51 -220 71 -134 27 -208 27 -244 3z"/>
</g>
</svg>
